<?xml version="1.0" encoding="UTF-8"?>
<svg id="Capa_1" data-name="Capa 1" xmlns="http://www.w3.org/2000/svg" viewBox="0 0 425.2 425.2">
  <defs>
    <style>
      .cls-1 {
        fill: #fff;
      }
    </style>
  </defs>
  <path id="ame" class="cls-1" d="m339.31,141.67h0c-1.81-2.56-4.34-2.69-7.4-1.88-17.27,5.2-29.64,9.27-55.59,15.52-41.48,9.3-63.17,10.31-96.09,14.11-3.3-.05-7.54,3.25-4.53,7.78,4.55,6.18,10.77,14.08,13.72,20.01-1.52-.08-4.06-.16-6.19-.21-1.72-3.99-.92-4.5-3.95-8.37-3.86-3.71-3.17-5.34-8.58-7.09-1.84-.35-4.9-.57-4.98-.57-5.65-.9-7.49,6.14-4.68,9.69,1.07,2.14,7.84,13.87,10.24,18.65,1.52,3.65-.43,8.38-2.78,11.54-1.48.76-6.58,3.13-8.65,4.08-4.76.67-11.66-.67-14.47-4.88-3.67-5.39-10.16-14.09-13.61-18.55-2.94-5.09-8.27-5.78-14.09-2.93,0,0-28.19,12.19-28.19,12.19-1.91.79-4.19,2.73-4.34,5.59-.21,3.33,2.52,5.33,4.34,6.67,7.12,5.8,54.42,43.73,65.29,52.39,5.04,3.08,11.31,9.49,18.27,10.45,4.22.07,5.86-4.38,4.58-7.66-1-4.16-6.36-18.38-6.52-22.02.08-2,.71-6.95,4.95-9.63,4.7-2.98,15.6-9.51,19.18-11.65,1.43-.96,4.33-2.28,6.94-7.88,3.58-13.84,14.71-4.71,16.82-20.3.32-2.57.71-5.75,1.92-7.05,1.86-2,7.55-5.58,9.85-5.59,2.5.04,13.72,5.93,14.96,6.25,6.61,2.89,14.13-5.11,17.46-9.41,1.08-1.66,1.52-2.88,4.54-3.03.28,0,1.72.04,2.47.88.67.76,1,1.41,1.32,2.04,1.15,3.15,5.04,4.81,8.53,3.79.19-.04,22.05-4.55,22.27-4.6,5.91-1.5,9.53-9.47,16.06-16.18,0,0,13.17-15.51,13.17-15.51h0c3-3.99,11-11.84,7.77-16.6Zm-24.25,25.37c-2.01,2.37-12.08,14.28-13.18,15.63-8.96,2.81-23.16,4.81-24.1,5.15-2.18-5.01-6.48-7.17-10.71-6.85-9.79.72-9.63,9.97-18.03,13.12-3.01-.64-13.54-7.2-18.36-6.94-10.67,1.67-18.46,8.93-18.56,18.84-1.09,4.91-.68,3.72-5.02,5.88-12.19,3.36-7.79,12.95-16.04,17.47-10.44,7.13-27.05,12.09-26.86,26.6-.04,5.38,4.57,16.12,5.91,21.52-21.52-14.18-58.52-46.31-77.32-60.65,2.86-.91,29.41-13.56,31.85-13,1.39,1.3,5.89,7.75,8.92,11.54,3.45,4.09,6.58,11.67,12.42,14.03,11,4.75,16.04,2.66,25.66-2.45,6.59-4.86,8.64-14.8,5.79-20.78-3.26-6.42-9.16-16.49-9.91-18.08,1.09.2,1.97,0,2.67.85,2.4,2.44,5.36,5.43,6.26,9.9,1.35,6.34,10.75,5.03,13.06,5.3,5.73.89,9-5.68,6.22-9.96-2.82-5.39-7.73-12.29-12.29-18.17,42.08-3.02,105.93-14.18,147.97-28.85-1.74,2.7-2.09,3.08-5.08,6.65,0,0,0,0,0,0l-11.26,13.24Z"/>
</svg>