<?xml version="1.0" encoding="UTF-8"?>
<svg id="Capa_1" data-name="Capa 1" xmlns="http://www.w3.org/2000/svg" viewBox="0 0 425.2 425.2">
  <defs>
    <style>
      .cls-1 {
        fill: #fff;
      }
    </style>
  </defs>
  <path id="cat" class="cls-1" d="m168.85,255.03c-14.53,0-29.13-.03-43.59-.15l-.39-.02c-5.9-.69-10.53-5.69-10.8-11.65-.12-1.38-.06-2.66,0-3.9.05-1.03.1-2.01.02-2.9-.39-2.07-1.66-3.89-3.36-4.78-2.11-.95-4.25-1.78-6.51-2.66-1.75-.68-3.55-1.38-5.34-2.14-4.45-1.56-7.75-3.42-10.39-5.86-9.67-8.77-11.02-23.58-3.12-34.43,5.51-7.8,15.13-13.35,27.07-15.58,5.52-.92,11-.84,16.29-.75,2.48.04,5.05.08,7.53.01h23.48c.51,0,.98,0,1.45,0,2.05-.02,4.37-.04,6.74.76,3.95,1.31,7.28,4.41,8.91,8.28,2.13,5.49,1.49,11.25-1.75,16.31-4.06,6.34-11.61,10.75-19.23,11.23-10.43.37-20.9.64-27.43.12-.43-.03-.91-.08-1.44-.14-2.21-.23-6.32-.66-7.72.61-.63.56-.78,1.73-.33,2.41l.12.19c.23.4,1.07.92,1.82,1.39.52.32,1.04.65,1.52,1,2.32,1.55,4.65,3.1,6.99,4.65,3.38,2.24,6.76,4.48,10.11,6.75,6.72,4.62,15.19,6.97,24.53,6.79,2.57-.05,5.17-.03,7.69-.02,1.26,0,2.51.02,3.77.02,1.36,0,2.62-.45,3.36-1.2.44-.45.64-.94.63-1.54,0-.62-.02-1.23-.03-1.84-.08-3.71-.17-7.92,1.65-11.96.94-2.3,2.37-4.27,3.63-6.01.28-.39.56-.78.84-1.16,1.92-2.76,3.86-5.55,5.77-8.34.83-1.2,1.67-2.4,2.5-3.59,1.89-2.71,3.85-5.52,5.68-8.27l.08-.12c.42-.58.83-1.19,1.23-1.79,1.45-2.17,3.09-4.62,5.68-6.41,5.8-4.42,14-5.47,20.91-2.68,3.61,1.53,6.84,3.53,9.97,5.47,1.7,1.05,3.3,2.05,4.96,2.97,7.02,4.14,14.06,8.34,20.87,12.41,12.29,7.35,25.01,14.96,37.64,22.13.81.44,1.66.92,2.52,1.4,1.33.74,2.66,1.48,3.98,2.19.4.22.77.44,1.14.67.74.45,1.58.96,2.05,1,.85-.18,1.21-.56,1.43-1.46.84-3.48-2.02-10.16-4.59-12.07l-.3-.25c-1.78-1.65-4.44-2.55-7.26-3.5-4.79-1.62-10.74-3.63-13.02-10.39-1.63-3.98-1.37-8.56.7-12.6,2.06-4.02,5.61-6.88,9.75-7.87,4.35-1.36,8.43.11,11.72,1.3.89.32,1.73.62,2.53.86l.11.03c2.01.67,4.04,1.33,6.06,2,3.44,1.13,6.88,2.27,10.27,3.4,3.29.9,8,2.53,11.45,6.27,3.45,3.7,5.43,8.25,5.57,12.81v.08c.03,4.06-.02,8.45-.08,12.7-.06,4.27-.11,8.69-.08,12.73v.09s0,.1,0,.1c-.04.93-.03,1.88-.03,2.9.02,2.43.04,4.93-.59,7.53-1.77,7-7.1,12.82-13.92,15.21-2.46.89-5.24,1.27-8.73,1.17h-6.4s-6.5,0-6.5,0c-6.27,0-12.57.01-18.89.02-11.03.02-22.09.03-33.03.02-17.73-.05-35.77-.01-53.21.02-11.41.02-22.99.04-34.63.04Zm-43.31-7.3c25.93.2,52.36.15,77.92.1,17.45-.03,35.5-.07,53.24-.02,10.94.01,21.99,0,33.01-.02,6.31,0,12.62-.02,18.9-.02h13c2.66.08,4.61-.16,6.23-.75,4.55-1.59,8.22-5.59,9.38-10.19.42-1.71.4-3.67.39-5.76,0-1.03-.02-2.09.03-3.17-.03-4.1.02-8.52.08-12.8.06-4.19.11-8.53.08-12.5-.1-2.78-1.43-5.74-3.67-8.14-1.74-1.89-4.26-3.2-8.18-4.26l-.21-.06c-3.4-1.14-6.87-2.28-10.33-3.42-2.01-.66-4.03-1.33-6.03-1.99-.98-.29-1.93-.64-2.86-.97-2.77-1-5.16-1.86-7.23-1.18l-.32.09c-2.14.49-4.01,2.02-5.13,4.2-1.13,2.21-1.28,4.65-.42,6.7l.1.28c1.08,3.3,3.81,4.37,8.56,5.97,3.2,1.08,6.81,2.31,9.69,4.9,4.54,3.51,8.7,12.82,7.12,19.36-.9,3.73-3.6,6.24-7.42,6.87l-.31.04c-2.74.2-4.86-1.08-6.41-2.02-.29-.18-.58-.35-.87-.51-1.31-.71-2.66-1.46-4.01-2.21-.85-.47-1.7-.94-2.54-1.41-12.74-7.24-25.49-14.86-37.82-22.24-6.79-4.06-13.82-8.27-20.75-12.35-1.73-.96-3.48-2.05-5.17-3.1-3.03-1.88-5.89-3.65-8.94-4.94-4.51-1.82-10.11-1.11-13.89,1.8l-.16.12c-1.5,1.02-2.65,2.74-3.86,4.55-.44.65-.88,1.31-1.34,1.94-1.86,2.8-3.83,5.62-5.73,8.35-.83,1.19-1.66,2.38-2.48,3.56-1.91,2.78-3.86,5.59-5.8,8.38-.31.43-.61.85-.91,1.27-1.13,1.56-2.21,3.03-2.81,4.54l-.06.15c-1.17,2.58-1.11,5.66-1.04,8.93.01.64.03,1.28.03,1.92.03,2.48-.93,4.85-2.7,6.64-2.09,2.11-5.16,3.32-8.44,3.32-1.26,0-2.54,0-3.81-.02-2.47-.02-5.04-.03-7.52.01-10.84.2-20.76-2.58-28.69-8.03-3.31-2.24-6.67-4.47-10.03-6.7-2.36-1.57-4.73-3.13-7.08-4.71l-.13-.09c-.36-.26-.74-.5-1.13-.74-1.37-.85-3.06-1.91-4.18-3.8-2.33-3.64-1.64-8.71,1.59-11.59,3.76-3.37,9.46-2.78,13.23-2.39.46.05.89.09,1.26.12,6.17.49,16.39.23,26.51-.13,5.24-.33,10.73-3.53,13.56-7.94,1.4-2.19,2.73-5.65,1.14-9.77-.78-1.84-2.58-3.52-4.56-4.18-1.23-.42-2.77-.4-4.39-.38-.52,0-1.05.01-1.57,0h-23.34c-2.53.07-5.18.03-7.74,0-5.2-.08-10.12-.16-14.93.65-5.78,1.08-16.49,4.18-22.5,12.7-5.77,7.94-4.84,18.66,2.14,24.99,1.94,1.79,4.48,3.19,8.03,4.42l.23.09c1.71.73,3.49,1.42,5.22,2.09,2.28.89,4.65,1.8,6.96,2.85l.15.07c3.8,1.93,6.51,5.71,7.26,10.12l.03.25c.14,1.44.08,2.78.02,4.07-.05,1.07-.1,2.08-.01,2.99v.2c.1,2.37,2.03,4.53,4.34,4.89Z"/>
</svg>