<?xml version="1.0" encoding="UTF-8"?>
<svg id="Capa_1" data-name="Capa 1" xmlns="http://www.w3.org/2000/svg" viewBox="0 0 425.2 425.2">
  <defs>
    <style>
      .cls-1 {
        fill: #fff;
      }
    </style>
  </defs>
  <path id="ger" class="cls-1" d="m343.08,226.84c-.88-7.52-2.16-13.42-6.12-21.33-3.82-7.6-14.15-26.57-14.24-26.73-.52-1.36-2.45-4.92-9.03-8.81l-19.58-11.41c-1.73-1.47-10.66-3.77-16.02-1.8-7.64,2.11-33.98,10.37-35.64,10.91-2.97,1.18-9.66,1.26-13.5-.25-24.41-6.04-59.29-13.89-76.72-20.43-10.24-3.36-17.41-6.57-24.64-6.74-9.07-.19-22.95,4.77-26.65,16.22l-18.66,60.12c-2.22,5.92,2.89,13.36,10.48,13.42,2.21,0,4.82-.6,8.73-2.02,37.98-12.54,139.09-46.78,175.8-53.57,3.21-.5,6.73-.59,8.02,3.05,1.49,3.45,1.31,4.93-1.99,6.66-3.87,2.15-12.95,7.16-15.24,19.27-2.81,14.28,5.02,23,8.66,24.66,1.58.7,6.57,3.37,8.66,6.4l1.38,1.94c5.23,6.61,7.13,14.39-1.52,17.9l-8.71,3.04c-1.26.59-3.96.18-5.2-1.04-2.29-1.83-1.74-4.23-1.33-6.68,1.13-11.04,5.03-20.59-7.15-32.71-5.77-5.34-12.54-11.04-19.93-11.04-1.8,0-3.62.34-5.39,1.01-12.88,4.93-19.7,10-20.84,15.48-1.1,4.67-.86,8.33.15,10.95,1.35,4.49,6.57,22,6.61,22.07,1.95,9.54,15.62,29.67,40.25,29.54,13.31,0,23.41-6.15,24.53-6.86l36.37-22.93c9.16-7.89,20.94-14.56,18.43-28.3Zm-78.43,10.43c-.12,2.89-1.05,8.66-1.51,12.21-.36,2.18-1.32,7.96,3.89,12.19,4.15,3.22,8.41,3.36,11.92,2.08,5.81-2.51,15.91-3.16,18.75-13.75,1.6-9.31-2.91-14.06-6.6-19.44-3.56-5.15-10.53-8.34-11.3-8.68-2.49-1.25-6.79-7.5-4.96-17.24,1.68-8.86,7.98-12.39,11.73-14.49,6.63-3.61,8.01-8.87,5.05-15.49-2.63-6.45-8.76-8.15-15.15-7.02-25.92,5.28-45.73,11.62-89.71,25.2-19.55,6.38-79.6,25.92-87.52,28.73-4.8,1.46-6.28,2.69-9.48.27-1.25-.89-1.13-2.28-.93-3.24,3.6-11.59,18.34-59.06,18.63-60.05,2.44-8.47,15.87-12.32,22.22-11.31,4.05.58,12.29,3.46,20.26,6.25,20.99,7.13,65.32,18.7,86.21,21.97,4.67,0,7.94-1.13,8.54-1.35.96-.32,27.77-8.69,35.16-10.74,2.91-1.28,9.72.07,10.73,1.09.08.06,19.4,11.31,19.6,11.42,2.36,1.4,5.38,3.58,6.41,6.01.05.09,10.39,19.1,14.25,26.72,3.48,6.95,4.61,12.09,5.47,19.13.67,4.23-.24,8.08-3,10.79-1.45,1.67-5.74,5.43-12.73,11.16-.35.2-34.38,21.62-35.94,22.61-.09.06-8.99,5.75-20.95,5.75-21.2.19-32.34-17.93-33.58-24.54l-6.63-22.2c-.69-2.24-1.04-2.44-.03-7.62.15-.74,1.67-4.73,16.53-10.41.95-.36,1.93-.55,2.91-.55,4.44,0,9.34,3.7,15.34,9.25,6.63,6.11,6.49,12.78,6.44,15.29Z"/>
</svg>