<?xml version="1.0" encoding="UTF-8"?>
<svg id="Capa_1" data-name="Capa 1" xmlns="http://www.w3.org/2000/svg" viewBox="0 0 425.2 425.2">
  <defs>
    <style>
      .cls-1 {
        fill: #fff;
      }
    </style>
  </defs>
  <g id="ita">
    <path class="cls-1" d="m329.46,254.06c3.44,1.27,13.43,4.95,10.94,16.58-2.21,8.84-11.22,10.56-17.19,10.29-.73-.1-13.84-1.79-20.14-2.81-.57-.09-1.08-.13-1.55-.13-2.48,0-3.58,1.12-3.82,1.39-.62,1.19-2.73,5.25-5.35,9.79-5.18,8.82-13.45,9.71-20.54,6.8-.76-.43-47.88-28.1-53.26-31.31-1.91-1.3-4.68-1.36-5.91-.57-.2.12-5.02,3.2-9.65,5.53-4.48,2.62-11.54.16-13.42-1.25l-44.45-31.93c-5.16-3.75-5.33-10.12-5.36-10.32l-.63-16.08c-.12-1.88-1.03-4.13-2.74-6.72-1.6-2.46-6.69-4.95-9.58-5.96-1.39-.4-20.45-5.75-21.46-6.03-.66-.17-16.61-4.5-19.88-16.06-2.48-7.43-.2-17.72,2.47-22.12l8.24-15.81c6.38-9.7,15.73-10.15,22.89-9.29.08,0,44.57,6.06,46.91,6.38,10.17,1.57,11.33,9.93,11.39,10.39.01.11.27,2.79.65,11.62.27,5.87,5.54,7.23,6.17,7.36.48.11,47.37,10.61,54.42,12.27,2.58.62,11.23,3.14,14.3,10.09,1.17,2.68,1.93,7.04-1.12,12.66-5,9.45-15.66,9.07-22.92,5.5-.8-.53-11.1-7.51-16.18-11.45-3.24-2.35-5.83-2.49-8.04-2.34l-7.95.74c-5.26.66-11.55-3.24-12.31-4.04-2.01-1.36-47.13-31.56-57.26-38.14-5.46-3.83-11.7-2.91-14.5.35-2.55,2.9-3.27,6.94-2.17,11.52,1.12,4.82,10.12,9.92,15.51,11.99,26.99,10.24,89,33.66,114.04,43.58,7.41,2.95,13.4,6.51,14.13,6.94,1.12.57,22.9,11.73,36.67,17.57,5.44,2.28,8.35,3.32,8.5,3.38l30.14,9.66Zm4.1,15.25c.94-4.3-.75-6.54-6.4-8.67-1.16-.36-30.03-9.58-30.15-9.64-.13-.06-3.25-1.15-8.94-3.57-14.34-6.03-37.03-17.68-37.27-17.81-.28-.14-6.25-3.78-13.42-6.62-24.73-9.78-87.21-33.42-113.94-43.54-1.77-.7-17.47-6.93-19.77-16.89-2.62-11.22,2.86-22.55,16-23.02,3.37,0,7.21,1,11.34,3.68,10.33,6.72,56.97,37.93,57.43,38.24.27.22,3.64,2.86,7.24,2.86.56-.02,8.11-.73,8.11-.73,3.69-.26,8.01-.06,13.22,3.73,4.62,3.59,14.13,10.05,15.24,10.83,3.38,1.7,10.58,3.13,13.43-2.63,1.38-2.54,1.65-4.68.86-6.5-1.44-3.23-6.08-5.33-9.6-6.17-7.02-1.68-53.88-12.18-54.29-12.27-3.82-.79-11.19-4.67-11.6-13.78-.32-7.58-.56-10.53-.63-11.14-.1-.67-.9-3.64-5.59-4.38-1.5-.09-47.39-6.72-50.07-6.64-3.56,0-9.32.89-12.57,6.11-.19.36-7.74,14.89-8.14,15.65-1.98,3.2-3.77,11.33-1.89,16.87,1.85,6.47,11.46,10.34,15.08,11.31l21.75,6.1c1.08.38,9.82,3.54,13.24,8.76,2.38,3.64,3.64,6.94,3.84,10.02l.67,16.31s.14,3.28,2.52,4.99c2.18,1.57,43.69,31.43,44.02,31.67,1.18.75,4.69,2.04,6.62.95,4.32-2.18,8.77-5.01,9.01-5.16,3.36-2.22,9.06-2.26,13.28.43,5.18,3.11,49.38,29.08,52.74,31.03,3.69,1.51,8.42,1.32,11.4-3.94,2.95-5.15,5.33-9.81,5.38-9.85,1.68-2.92,7.18-5.77,12.57-4.66,6.01.97,18.76,2.64,19.59,2.75,2.42.03,8.49-.07,9.7-4.66"/>
  </g>
</svg>