<?xml version="1.0" encoding="UTF-8"?>
<svg id="Capa_1" data-name="Capa 1" xmlns="http://www.w3.org/2000/svg" viewBox="0 0 425.2 425.2">
  <defs>
    <style>
      .cls-1 {
        fill: #fff;
      }
    </style>
  </defs>
  <path id="ned" class="cls-1" d="m321.11,151.39l-.36-10.98c.76-8.8-9.86-15.3-15.96-20.96-1.43-1.48-3.36-2.26-5.58-2.26s-4.82.84-6.94,2.3c-1.81,1.25-11.26,7.82-54.2,37.82l-2.25,1.58c-3.76,3.12-8.5,7.4-9.72,10.1-1.28,2.83-3.32,3.65-5.5,4.52-2.93,1.17-5.96,2.37-6.49,8.35-.45,5.16-3.58,28.87-3.61,29.1-.59,11.14-15.25,21.16-25.27,21.35-18.32.54-33.94,8.41-50.38,14.68-5.41,1.64-10.69,5.79-13.44,10.55-4.53,6.2-10.2,13.85-11.26,15.03-6.28,7.63-10.98,19.45-.56,28.84,9.76,11.92,22.2,6.99,24.37-9.05l2.99-10.55c.99-2.63,3.65-4.14,6.57-3.87,6.73.45,13.18,1.75,19.47,1.78,4.71-.07,10.88-.93,15.94-.91,2.23,0,3.89.16,5.06.49,16.99,4.84,27.32-1.18,26.25-17.87.67-7.17,1.78-15.67,2.9-18.05,6.17-13.27,15.55-4.94,23.21-13.28,16.54-19.57,30.92-37.84,47.54-57.94,4.72-4.78,7.5-10.84,10.2-16.71,1.98-4.14,4.58-10.37,7.68-13.48.08.56-.02,1.93-.38,2.48l-.46.72c-3.4,5.3-8.06,12.55-2.77,18.57,4.75,5.34,11.38,7.56,17.59,4.75,6.1-2.77,6.76-10.63,5.35-17.07Zm-14.77-2c3.98-4.59,3.01-14.23-4.23-14.43-6.68,0-11.93,11.5-16.14,20.74-2.71,5.9-3.66,8.3-7.16,11.83-10.33,12.5-40.51,48.92-45.98,55.94q-2.77,3.56-6.62,4.11c-20.38,1.55-21.34,18.01-22.86,33.56l-.02.3c.85,12.23-4.33,14.83-17.42,11.21-1.8-.5-4.04-.75-6.85-.75-8.92.2-16.95,1.73-25.95.11-2.56-.32-5.55-.69-9.02-.96-6.17-.55-11.79,3.08-13.72,8.71l-3.19,11.27c-1.34,10.44-6.51,13.47-12.62,5.54-2.32-2-4.53-5.51-4.28-8.34.42-4.82,3.46-9.38,5-11.11.94-1.06,4.78-6.17,11.72-15.62l.18-.26c1.93-3.48,5.71-6.46,9.8-7.72,1.22-.48,19.28-7.34,28.65-10.97,6.61-2.57,11.56-2.91,16.37-3.24,7.33-.5,14.24-.98,25.45-9.48,5.32-4.03,9.21-11.17,9.91-18.18.34-2.62,3.19-24.3,3.63-29.24.17-2.02,1.02-2.28,2.87-2.84,2.44-.73,5.78-1.74,8.52-7.78.52-1.15,4.77-5.05,7.6-7.44,15.37-10.73,50.96-35.6,56.16-39.19,1.47-.94,2.49-1.43,3.74-.83,4.31,4.02,13.88,10.56,14.01,15.27,0,.1,0,.28-.02.43l-.02.3.39,12.13c.68,2.67,1.26,8.56-1.31,9.72l-.13.06c-3.74,1.85-5.48-.04-8.5-2.29-3.21-2.28-.89-6.29,2.02-10.58Z"/>
</svg>