<?xml version="1.0" encoding="UTF-8"?>
<svg id="Capa_1" data-name="Capa 1" xmlns="http://www.w3.org/2000/svg" viewBox="0 0 425.2 425.2">
  <defs>
    <style>
      .cls-1 {
        fill: #fff;
      }
    </style>
  </defs>
  <path id="qat" class="cls-1" d="m140.7,257.56c-6.05,3.5-14.12,7.67-14.12,15.48,0,14.89,19.55,12.9,29.31,12.9,17.63-.01,41.94.06,59.57.01,17.28-.04,34.56.13,51.84.09,8.08-.02,16.15-.03,24.23-.05,6.01-.02,13.04-.27,17.48-4.93,5.99-6.28,2.56-13.92-1.49-20.11-5.94-9.07-11.8-18.19-17.79-27.23-4.94-7.49-13.93-17.02-5.43-25.27,2.94-3.31,5.86-6.63,8.74-10,4.42-5.16,10.17-10.37,13.11-16.58,3.57-7.54-.64-13.9-4.38-20.36-3.17-5.47-5.33-13.2-11.74-15.72-5.96-2.34-14.59-1.52-20.85-.81-22.76,2.2-18.18,44.57-45.67,61.19-10.78,7.03-25.39,11.64-17.97-7.55,2.47-6.49,5.98-14.19,2.38-20.9-3.01-5.61-9.01-8.83-12.37-14.25-3.82-6.16-3.89-14.33-8.36-19.98-4.21-5.33-11.15-5.7-16.31-1.43-5.67,4.68-6.23,12.39-6.92,19.19-.98,9.74-1.51,16.79-2.36,25.12-.39,3.81-.59,6.67-2.28,7.54-2.22,1.15-3.16-3.58-3.71-5.04-2.65-7.16-4.38-14.53-6.68-21.79-2.05-6.47-5.35-11.06-12.75-11.3-5.72-.19-12.1,2.31-17.03,5.07-10.79,6.03-4.8,18.09-1.76,26.74,2.67,7.62,5.24,15.29,7.8,22.95,1.77,5.27,3.38,10.81,6.79,15.3,4,5.26,9.71,7.14,15.4,9.95,3.89,1.92,13.18,7.8,9.05,12.19-3.77,4-15.72,9.58-15.72,9.58Zm20.91-20.48c-4.12-5.74-11.55-7.36-17.51-10.43-7.05-3.62-9.45-9.17-11.56-16.48-1.95-6.78-4.39-13.43-6.7-20.1-2.02-5.85-5.75-12.35-6.11-18.6-.35-6.18,7.23-8.11,12.09-9.32,6.9-1.72,9.78,3.08,11.4,9.04,1.56,5.74,3.39,11.59,5.25,17.25,1.45,4.42,2.59,10.25,7.47,11.86,5.42,1.79,9.66-2.16,11.16-7.01,1.82-5.88,1.68-12.57,2.49-18.64.9-6.73,1.16-14.62,2.44-21.28.45-2.35,1.11-5.41,3.09-7.01,2.73-2.2,5.81-.6,7.25,2.09,1.3,2.44,1.69,6.33,2.54,8.94,1.17,3.57,2.63,7.07,4.62,10.26,3.61,5.76,13.35,10.08,12.63,17.68-.6,6.28-4.3,12.19-5.43,18.42-2.16,10.67,4.22,16.87,14.85,14.94,13.19-2.22,24.83-12.04,32.04-22.89,7.35-11.05,11.2-23.73,16.62-35.72,3.35-7.41,8.65-8.34,16.36-8.1,3.01.09,6.23-.3,9.2.1,3.96.52,4.87,4.01,6.5,7.17s3.41,6.49,5.26,9.65c2.05,3.5,3.71,6.8,1.65,10.73-2.88,5.47-8.36,10.25-12.36,14.92s-9.01,9.31-12.1,14.8c-3.69,6.56-1.19,12.91,2.57,18.76,7.95,12.37,16.2,24.56,24.21,36.9,4.23,5.52,5.55,11.88-3.03,13.69-6.23,1.3-13.12.41-19.44.39-34.44-.11-68.9,0-103.34.11-8.48.03-16.99.15-25.47.15-4.77,0-14.1.24-15.77-3.45-2.53-5.61,4.37-8.84,7.91-10.91,5.78-3.38,12.59-6.51,17.78-10.78,5.11-4.2,5.16-11.95,1.43-17.14Z"/>
</svg>