<?xml version="1.0" encoding="UTF-8"?>
<svg id="Capa_1" data-name="Capa 1" xmlns="http://www.w3.org/2000/svg" viewBox="0 0 425.2 425.2">
  <defs>
    <style>
      .cls-1 {
        fill: #fff;
      }
    </style>
  </defs>
  <path id="mal" class="cls-1" d="m320.66,218.74c-2.62-3.2-30.48-40.3-30.63-40.53-.62-.86-6.35-8.44-16.73-8.44-6.99.07-12.71,2.44-16.55,6.86-6.04,6.86-11.61,7.59-17.34,7.22-11.38-1.17-15.32-11.75-15.81-15.36,0-.01-.05-.41-.26-2.11-2.97-24.64-4.49-37.37-4.5-37.84-.23-6.63-7.82-8.3-12.85-5.42-1.1.46-19.56,7.71-28.54,10.37-9.82,2.9-33.69,9.27-35.98,9.83-.21.05-20.45,4.95-24.91,24.2-3.19,13.38-3.04,21.01,4.06,31.17.78,1.17,2.85,4.12,2.86,5.3-.24.68-.5.85-.68.91-2.98-1.24-6.54-3.42-10.63-3.34-4.13.26-6.83,1.29-9.03,6.36-3.24,8.1,4.34,13.66,9.55,13.71,28.65-.5,143.14-2.54,169.52-2.87,1.54,0,4.17.41,4.36,3.15.06.94-.22,1.37-.47,1.64-.89.96-3.11,1.43-4.81,1.45l-152.33,18.33c-4.91.93-9.84,4.37-9.06,9.74.47,3.09,2.84,13.52,13.58,18.09,4.79,2.03,9.6,3.07,14.33,3.07,7.77.48,18.25-5.16,25.3-7.92.24-.09,1.51-.54,3.13-.54s2.83.41,3.86,1.22c3.34,2.66,21.78,20.47,32.6,31.05,1.86,2.97,6.58,6.1,11.21,5.26.82-.01,5.15-.37,9.2-6.31,3.72-4.7,10.55-17.62,8.43-29.91-2.13-11.7-11.01-13.77-16.93-18.18.19-.01.47-.02.91-.02.25-.03,32.04-2.96,40.16-3.1l40.37-.32c2.6.24,6.05.16,8.83-4.82,1.9-3.75,6.74-12.35,6.79-12.42,1.92-2.94,1.33-6.63-1.02-9.48Zm-102.84,28.04c-1.33,5.29,2.5,7.7,2.94,7.95l7.11,4.33c2.79,1.61,7.59,5.11,7.13,12.87.06,10.11-4.66,17.03-7.48,21.17-1.82,2.72-3.5,3.34-4.28,3.41-2.56.6-4.65-1.97-5.48-3.17-2.11-2.09-28.88-28.18-33.37-31.74-3.54-3.25-10.61-3.14-13.88-1.62,0,0-13.1,5.49-13.1,5.49-6.57,2.75-13.79,2.53-21.21-.63-7.56-3.21-9.19-10.68-9.51-12.87-.02-.68,2.06-1.61,3.4-1.88,0,0,151.81-18.25,151.79-18.25,4.53.04,12.16-2.96,11.52-10.44-.44-7-6.5-9.48-11.57-9.48,0,0-38.79.59-38.81.59-33.57.59-125.5,2.19-130.23,2.27-.87-.15-3.66-1.17-3.56-3.04-.07-1.04.94-3.13,1.71-3.16,2.41-.56,4.64.45,7.71,2.06,4.55,2.28,9.06,1.19,11.31-4.45,2.1-6.23-5.19-11.8-7.02-17.5-1.37-3.17-2.79-6.45.28-19.69,3.53-15.14,19.65-18.99,19.81-19.03,3.27-.8,26.99-7.15,36.29-9.93,9.3-2.73,27.85-10.04,29.56-10.75,1.05-.57,2.06-.49,3.08.26l4.83,39.92c.82,8.58,10.15,21.86,24.79,21.33,8.04,0,15.16-3.47,20.59-10.04,2.31-2.67,6.2-4.1,11.25-4.15,7.05,0,10.99,5.61,11.03,5.68,1.38,1.84,28.14,37.44,30.85,40.8.72.88.69,1.35.44,1.77h0c-.2.36-4.99,8.84-6.97,12.74-.31.74-1.11,1.09-2.4,1l-40.72.33c-8.41.2-31.32,2.26-40.87,3.08-2.65,0-6.07,1.25-6.96,4.76Z"/>
</svg>