<?xml version="1.0" encoding="UTF-8"?>
<svg id="Capa_1" data-name="Capa 1" xmlns="http://www.w3.org/2000/svg" viewBox="0 0 425.2 425.2">
  <defs>
    <style>
      .cls-1 {
        fill: #fff;
      }
    </style>
  </defs>
  <path id="val" class="cls-1" d="m331.71,164.66c-5.17-2-10.88.86-12.82,3.49-.95.94-9.19,9.69-14.11,14.91-4.4,5.26-7.54,5.46-7.48,15.02.49,5.83,1.81,30.07,1.81,30.17.01,1.03-.23,4.42-3.73,4.6-3.63.3-21.31.05-22.06,0-.66,0-6.5-.12-7.68-4.39-1.08-2.91-.63-8.2.86-9.48,1.12-1.57,24.41-35.29,25.88-37.44,5.87-8.4-1.24-20.84-12.06-20.17-4.49.07-65.14.52-65.57.52-1.65,0-5.92.22-9.96,2.28-4.22,2.15-30.44,14.71-30.64,14.8-3.44,1.97-9.18,8.36-6.28,18.46,3.52,10.09,10.58,9.92,19.64,9.77,6.89-.01,17.23-.03,17.37-.03,3.55.09,8.26-.51,14.59-6.75,5.13-5.25,8.99-8.81,10.26-9.98,1.09-.94,2.78-3.22,6.99-3.66.65-.02,12.95-.31,14.41-.35,1.45.13,4.84.85,4.98,4.58,0,1.8-.46,4.13-2.7,5.04l-60.51,28.09c-1.18.79-3.6.5-4.83-.86-28.79-30.81-81.79-20.28-100.26,24.94-2.26,6.1,1.28,13.25,10.47,13.66,0,0,205.4-.58,205.4-.58,5,0,14.46-3.12,18.22-14.83l15.79-69c.84-3.51.67-10.7-5.98-12.78Zm-.65,11.34c-.28,1.08-2.09,8.94-15.71,68.63-3.08,9.52-10.93,9.8-11.81,9.8-4.21.07-159.44.46-204.86.62-2.87-.44-4.58-.79-4.7-3.13.09-.89.1-1.21.24-1.48,17.68-40.95,63.41-49.66,89.22-22.1,7.14,6.4,13.53,1.1,20.18-1.73,45.55-21.12,51.82-24.04,52.5-24.37h0c9.79-3.99,9.85-21.64-4.76-22.63l-14.84.36c-6.2.24-10.4,4.49-11.16,5.31-.8.69-4.95,4.48-10.73,10.4-3.05,3.1-6.3,4.72-9.54,4.66,0,0-24.02.07-24.02.07-1.23,0-5.36-.35-6.66-4.89-1.68-4.78.84-9.6,3-10.58,7.16-3.46,26.7-12.82,30.4-14.7,2-1,4.53-1.53,7.34-1.53,1.59-.1,59.4-.41,65.74-.52,2.49,0,3.74.35,6.12,3.88,1.71,2.55-.28,5.69-.31,5.73-5.26,7.6-23.87,34.59-25.74,37.24-2.92,4.08-3.56,9.23-1.89,15.28,4.24,12.07,16.2,8.92,26.41,9.5,4.32,0,7.73-.06,10.14-.17,7.82-.35,10.45-7.26,10.3-11.83-.46-7.55-1.4-25.29-1.84-30.36-.31-3.63,1.43-5.36,1.8-5.69.07-.08,16.51-17.55,17.96-19.03,1.2-1.59,3.56-2.45,5.76-1.56,1.96.62,1.66,3.44,1.42,4.82h.02Z"/>
</svg>